# MagicaVoxel @ ephtracy

# material
mtllib chr_man.mtl
usemtl palette

# normals
vn -1 0 0
vn 1 0 0
vn 0 0 1
vn 0 0 -1
vn 0 -1 0
vn 0 1 0

# texcoords
vt 0.0136719 0.5
vt 0.0332031 0.5
vt 0.310547 0.5
vt 0.333984 0.5
vt 0.478516 0.5
vt 0.646484 0.5
vt 0.787109 0.5
vt 0.814453 0.5
vt 0.982422 0.5
vt 0.986328 0.5
vt 0.990234 0.5
vt 0.994141 0.5

# verts
v -4 2 0.5
v -4 2 -0.5
v -4 3 0.5
v -4 3 -0.5
v -4 6 2.5
v -4 6 0.5
v -4 6 -0.5
v -4 6 -1.5
v -4 7 2.5
v -4 7 0.5
v -4 7 -0.5
v -4 8 3.5
v -4 8 2.5
v -4 8 0.5
v -4 8 -0.5
v -4 10 3.5
v -4 10 0.5
v -4 10 -0.5
v -4 10 -1.5
v -4 11 0.5
v -4 11 -0.5
v -3 1 1.5
v -3 1 -1.5
v -3 2 2.5
v -3 2 1.5
v -3 2 0.5
v -3 2 -0.5
v -3 2 -1.5
v -3 2 -2.5
v -3 3 2.5
v -3 3 0.5
v -3 3 -0.5
v -3 3 -2.5
v -3 6 2.5
v -3 6 0.5
v -3 6 -0.5
v -3 6 -1.5
v -3 6 -2.5
v -3 7 0.5
v -3 7 -0.5
v -3 10 1.5
v -3 10 0.5
v -3 10 -0.5
v -3 10 -1.5
v -3 11 1.5
v -3 11 0.5
v -3 11 -0.5
v -3 11 -1.5
v -3 11 -2.5
v -3 12 0.5
v -3 12 -1.5
v -2 0 0.5
v -2 0 -0.5
v -2 1 0.5
v -2 1 -0.5
v -2 6 -2.5
v -2 6 -3.5
v -2 10 2.5
v -2 10 1.5
v -2 11 2.5
v -2 11 1.5
v -2 11 0.5
v -2 11 -1.5
v -2 11 -2.5
v -2 11 -3.5
v -2 12 1.5
v -2 12 0.5
v -2 12 -1.5
v -2 12 -2.5
v 1 0 0.5
v 1 0 -0.5
v 1 1 1.5
v 1 1 0.5
v 1 1 -0.5
v 1 1 -1.5
v 1 2 1.5
v 1 2 0.5
v 1 2 -1.5
v 1 12 0.5
v 1 12 -0.5
v 1 12 -1.5
v 1 13 0.5
v 1 13 -0.5
v 1 13 -1.5
v 3 6 2.5
v 3 6 1.5
v 3 7 2.5
v 3 7 1.5
v 3 9 2.5
v 3 9 1.5
v -3 6 2.5
v -3 6 1.5
v -3 7 2.5
v -3 7 1.5
v -3 8 3.5
v -3 8 2.5
v -3 9 3.5
v -3 9 1.5
v -1 0 0.5
v -1 0 -0.5
v -1 1 1.5
v -1 1 0.5
v -1 1 -0.5
v -1 1 -1.5
v -1 2 1.5
v -1 2 -1.5
v 2 0 0.5
v 2 0 -0.5
v 2 1 0.5
v 2 1 -0.5
v 2 6 -2.5
v 2 6 -3.5
v 2 10 -2.5
v 2 11 1.5
v 2 11 0.5
v 2 11 -1.5
v 2 11 -2.5
v 2 11 -3.5
v 2 12 1.5
v 2 12 0.5
v 2 12 -0.5
v 2 12 -1.5
v 2 12 -2.5
v 2 13 0.5
v 2 13 -0.5
v 2 13 -1.5
v 3 1 1.5
v 3 1 -1.5
v 3 2 2.5
v 3 2 1.5
v 3 2 0.5
v 3 2 -0.5
v 3 2 -1.5
v 3 2 -2.5
v 3 3 2.5
v 3 3 0.5
v 3 3 -0.5
v 3 3 -2.5
v 3 6 2.5
v 3 6 0.5
v 3 6 -0.5
v 3 6 -1.5
v 3 6 -2.5
v 3 7 0.5
v 3 7 -0.5
v 3 9 3.5
v 3 9 2.5
v 3 9 -1.5
v 3 10 3.5
v 3 10 2.5
v 3 10 -1.5
v 3 10 -2.5
v 3 11 0.5
v 3 11 -0.5
v 3 11 -1.5
v 3 11 -2.5
v 3 12 0.5
v 3 12 -0.5
v 3 12 -1.5
v 4 2 0.5
v 4 2 -0.5
v 4 3 0.5
v 4 3 -0.5
v 4 6 2.5
v 4 6 0.5
v 4 6 -0.5
v 4 6 -1.5
v 4 7 2.5
v 4 7 1.5
v 4 7 0.5
v 4 7 -0.5
v 4 8 0.5
v 4 8 -0.5
v 4 9 -0.5
v 4 9 -1.5
v 4 10 1.5
v 4 10 0.5
v 4 11 2.5
v 4 11 0.5
v 4 11 -1.5
v -4 8 3.5
v -4 10 3.5
v -3 8 3.5
v -3 9 3.5
v 3 9 3.5
v 3 10 3.5
v -4 6 2.5
v -4 7 2.5
v -4 8 2.5
v -3 2 2.5
v -3 3 2.5
v -3 6 2.5
v -3 7 2.5
v -3 8 2.5
v -2 10 2.5
v -2 11 2.5
v -1 3 2.5
v -1 6 2.5
v 0 2 2.5
v 0 3 2.5
v 0 5 2.5
v 0 10 2.5
v 0 11 2.5
v 1 3 2.5
v 1 5 2.5
v 1 6 2.5
v 1 10 2.5
v 1 11 2.5
v 3 2 2.5
v 3 3 2.5
v 3 6 2.5
v 3 7 2.5
v 3 9 2.5
v 3 10 2.5
v 4 6 2.5
v 4 7 2.5
v 4 11 2.5
v -3 1 1.5
v -3 2 1.5
v -3 6 1.5
v -3 7 1.5
v -3 9 1.5
v -3 10 1.5
v -3 11 1.5
v -2 7 1.5
v -2 8 1.5
v -2 10 1.5
v -2 11 1.5
v -2 12 1.5
v -1 1 1.5
v -1 2 1.5
v -1 6 1.5
v -1 7 1.5
v -1 8 1.5
v -1 9 1.5
v -1 11 1.5
v -1 12 1.5
v 0 11 1.5
v 1 1 1.5
v 1 2 1.5
v 1 6 1.5
v 1 7 1.5
v 1 8 1.5
v 1 11 1.5
v 1 12 1.5
v 2 7 1.5
v 2 8 1.5
v 2 11 1.5
v 2 12 1.5
v 3 1 1.5
v 3 2 1.5
v 3 6 1.5
v 3 7 1.5
v 3 9 1.5
v -4 2 0.5
v -4 3 0.5
v -4 6 0.5
v -4 10 0.5
v -4 11 0.5
v -3 2 0.5
v -3 3 0.5
v -3 6 0.5
v -3 10 0.5
v -3 11 0.5
v -3 12 0.5
v -2 0 0.5
v -2 1 0.5
v -2 11 0.5
v -2 12 0.5
v -1 0 0.5
v -1 1 0.5
v 1 0 0.5
v 1 1 0.5
v 1 12 0.5
v 1 13 0.5
v 2 0 0.5
v 2 1 0.5
v 2 11 0.5
v 2 12 0.5
v 2 13 0.5
v 3 2 0.5
v 3 3 0.5
v 3 6 0.5
v 3 11 0.5
v 3 12 0.5
v 4 2 0.5
v 4 3 0.5
v 4 6 0.5
v -4 6 -0.5
v -4 7 -0.5
v -3 6 -0.5
v -3 7 -0.5
v 3 6 -0.5
v 3 7 -0.5
v 4 6 -0.5
v 4 7 -0.5
v -4 6 0.5
v -4 7 0.5
v -3 6 0.5
v -3 7 0.5
v 3 6 0.5
v 3 7 0.5
v 4 6 0.5
v 4 7 0.5
v -4 2 -0.5
v -4 3 -0.5
v -4 6 -0.5
v -4 10 -0.5
v -4 11 -0.5
v -3 2 -0.5
v -3 3 -0.5
v -3 6 -0.5
v -3 10 -0.5
v -3 11 -0.5
v -2 0 -0.5
v -2 1 -0.5
v -1 0 -0.5
v -1 1 -0.5
v 1 0 -0.5
v 1 1 -0.5
v 2 0 -0.5
v 2 1 -0.5
v 3 2 -0.5
v 3 3 -0.5
v 3 6 -0.5
v 4 2 -0.5
v 4 3 -0.5
v 4 6 -0.5
v -4 6 -1.5
v -4 10 -1.5
v -3 1 -1.5
v -3 2 -1.5
v -3 6 -1.5
v -3 10 -1.5
v -3 11 -1.5
v -3 12 -1.5
v -2 11 -1.5
v -2 12 -1.5
v -1 1 -1.5
v -1 2 -1.5
v 1 1 -1.5
v 1 2 -1.5
v 1 12 -1.5
v 1 13 -1.5
v 2 11 -1.5
v 2 12 -1.5
v 2 13 -1.5
v 3 1 -1.5
v 3 2 -1.5
v 3 6 -1.5
v 3 9 -1.5
v 3 10 -1.5
v 3 11 -1.5
v 3 12 -1.5
v 4 6 -1.5
v 4 9 -1.5
v 4 11 -1.5
v -3 2 -2.5
v -3 3 -2.5
v -3 6 -2.5
v -3 11 -2.5
v -2 6 -2.5
v -2 11 -2.5
v -2 12 -2.5
v 0 11 -2.5
v 0 12 -2.5
v 2 6 -2.5
v 2 10 -2.5
v 2 11 -2.5
v 2 12 -2.5
v 3 2 -2.5
v 3 3 -2.5
v 3 6 -2.5
v 3 10 -2.5
v 3 11 -2.5
v -2 6 -3.5
v -2 11 -3.5
v 2 6 -3.5
v 2 11 -3.5
v -2 0 0.5
v -1 0 0.5
v 1 0 0.5
v 2 0 0.5
v -2 0 -0.5
v -1 0 -0.5
v 1 0 -0.5
v 2 0 -0.5
v -3 1 1.5
v -1 1 1.5
v 1 1 1.5
v 3 1 1.5
v -2 1 0.5
v -1 1 0.5
v 1 1 0.5
v 2 1 0.5
v -2 1 -0.5
v -1 1 -0.5
v 1 1 -0.5
v 2 1 -0.5
v -3 1 -1.5
v -1 1 -1.5
v 1 1 -1.5
v 3 1 -1.5
v -3 2 2.5
v 0 2 2.5
v 3 2 2.5
v -3 2 1.5
v -1 2 1.5
v 1 2 1.5
v 3 2 1.5
v -4 2 0.5
v -3 2 0.5
v 0 2 0.5
v 1 2 0.5
v 3 2 0.5
v 4 2 0.5
v -4 2 -0.5
v -3 2 -0.5
v 3 2 -0.5
v 4 2 -0.5
v -3 2 -1.5
v -1 2 -1.5
v 1 2 -1.5
v 3 2 -1.5
v -3 2 -2.5
v 3 2 -2.5
v -4 6 2.5
v -3 6 2.5
v 3 6 2.5
v 4 6 2.5
v -4 6 0.5
v -3 6 0.5
v 3 6 0.5
v 4 6 0.5
v -4 6 -0.5
v -3 6 -0.5
v 3 6 -0.5
v 4 6 -0.5
v -4 6 -1.5
v -3 6 -1.5
v 3 6 -1.5
v 4 6 -1.5
v -2 6 -2.5
v 2 6 -2.5
v -2 6 -3.5
v 2 6 -3.5
v -4 7 0.5
v -3 7 0.5
v 3 7 0.5
v 4 7 0.5
v -4 7 -0.5
v -3 7 -0.5
v 3 7 -0.5
v 4 7 -0.5
v -4 8 3.5
v -3 8 3.5
v -4 8 2.5
v -3 8 2.5
v -3 9 3.5
v 3 9 3.5
v -1 9 2.5
v 3 9 2.5
v -3 9 1.5
v -1 9 1.5
v 3 9 1.5
v -3 6 2.5
v -1 6 2.5
v 1 6 2.5
v 3 6 2.5
v -3 6 1.5
v -1 6 1.5
v 1 6 1.5
v 3 6 1.5
v -4 6 0.5
v -3 6 0.5
v 3 6 0.5
v 4 6 0.5
v -4 6 -0.5
v -3 6 -0.5
v 3 6 -0.5
v 4 6 -0.5
v -4 10 3.5
v 3 10 3.5
v -2 10 2.5
v 0 10 2.5
v 1 10 2.5
v 3 10 2.5
v -3 10 1.5
v -2 10 1.5
v -4 10 0.5
v -3 10 0.5
v -4 10 -0.5
v -3 10 -0.5
v -4 10 -1.5
v -3 10 -1.5
v -2 11 2.5
v 0 11 2.5
v 1 11 2.5
v 4 11 2.5
v -3 11 1.5
v -2 11 1.5
v -1 11 1.5
v 0 11 1.5
v 1 11 1.5
v 2 11 1.5
v -4 11 0.5
v -3 11 0.5
v -2 11 0.5
v 2 11 0.5
v 3 11 0.5
v 4 11 0.5
v -4 11 -0.5
v -3 11 -0.5
v 3 11 -0.5
v -3 11 -1.5
v -2 11 -1.5
v 2 11 -1.5
v 3 11 -1.5
v 4 11 -1.5
v -3 11 -2.5
v -2 11 -2.5
v 0 11 -2.5
v 2 11 -2.5
v 3 11 -2.5
v -2 11 -3.5
v 2 11 -3.5
v -2 12 1.5
v -1 12 1.5
v 1 12 1.5
v 2 12 1.5
v -3 12 0.5
v -2 12 0.5
v 1 12 0.5
v 2 12 0.5
v 3 12 0.5
v 1 12 -0.5
v 2 12 -0.5
v 3 12 -0.5
v -3 12 -1.5
v -2 12 -1.5
v -1 12 -1.5
v 0 12 -1.5
v 1 12 -1.5
v 2 12 -1.5
v 3 12 -1.5
v -2 12 -2.5
v 0 12 -2.5
v 2 12 -2.5
v 1 13 0.5
v 2 13 0.5
v 1 13 -0.5
v 2 13 -0.5
v 1 13 -1.5
v 2 13 -1.5

# faces
f 3/4/1 2/4/1 1/4/1
f 4/4/1 2/4/1 3/4/1
f 6/8/1 4/8/1 3/8/1
f 7/8/1 4/8/1 6/8/1
f 9/12/1 6/12/1 5/12/1
f 10/12/1 6/12/1 9/12/1
f 11/11/1 8/11/1 7/11/1
f 13/11/1 10/11/1 9/11/1
f 14/4/1 11/4/1 10/4/1
f 14/11/1 10/11/1 13/11/1
f 15/11/1 8/11/1 11/11/1
f 15/4/1 11/4/1 14/4/1
f 16/11/1 13/11/1 12/11/1
f 16/11/1 14/11/1 13/11/1
f 16/11/1 15/11/1 14/11/1
f 17/11/1 15/11/1 16/11/1
f 18/11/1 8/11/1 15/11/1
f 18/11/1 15/11/1 17/11/1
f 19/11/1 8/11/1 18/11/1
f 20/11/1 18/11/1 17/11/1
f 21/11/1 18/11/1 20/11/1
f 25/1/1 23/1/1 22/1/1
f 26/1/1 23/1/1 25/1/1
f 27/1/1 23/1/1 26/1/1
f 28/1/1 23/1/1 27/1/1
f 30/5/1 25/5/1 24/5/1
f 30/5/1 26/5/1 25/5/1
f 31/5/1 26/5/1 30/5/1
f 32/5/1 29/5/1 28/5/1
f 32/5/1 28/5/1 27/5/1
f 33/5/1 29/5/1 32/5/1
f 34/6/1 31/6/1 30/6/1
f 35/6/1 31/6/1 34/6/1
f 36/6/1 33/6/1 32/6/1
f 37/6/1 33/6/1 36/6/1
f 38/6/1 33/6/1 37/6/1
f 39/11/1 36/11/1 35/11/1
f 40/11/1 36/11/1 39/11/1
f 44/11/1 38/11/1 37/11/1
f 45/11/1 42/11/1 41/11/1
f 46/11/1 42/11/1 45/11/1
f 47/11/1 44/11/1 43/11/1
f 48/11/1 38/11/1 44/11/1
f 48/11/1 44/11/1 47/11/1
f 49/11/1 38/11/1 48/11/1
f 50/11/1 47/11/1 46/11/1
f 50/11/1 48/11/1 47/11/1
f 51/11/1 48/11/1 50/11/1
f 54/7/1 53/7/1 52/7/1
f 55/7/1 53/7/1 54/7/1
f 60/11/1 59/11/1 58/11/1
f 61/11/1 59/11/1 60/11/1
f 64/11/1 57/11/1 56/11/1
f 65/11/1 57/11/1 64/11/1
f 66/11/1 62/11/1 61/11/1
f 67/11/1 62/11/1 66/11/1
f 68/11/1 64/11/1 63/11/1
f 69/11/1 64/11/1 68/11/1
f 73/7/1 71/7/1 70/7/1
f 74/7/1 71/7/1 73/7/1
f 76/1/1 73/1/1 72/1/1
f 76/1/1 75/1/1 74/1/1
f 76/1/1 74/1/1 73/1/1
f 77/1/1 75/1/1 76/1/1
f 78/1/1 75/1/1 77/1/1
f 82/9/1 80/9/1 79/9/1
f 83/10/1 81/10/1 80/10/1
f 83/9/1 80/9/1 82/9/1
f 84/10/1 81/10/1 83/10/1
f 87/10/1 86/10/1 85/10/1
f 88/10/1 86/10/1 87/10/1
f 89/9/1 88/9/1 87/9/1
f 90/9/1 88/9/1 89/9/1
f 91/12/2 92/12/2 93/12/2
f 93/12/2 92/12/2 94/12/2
f 93/11/2 94/11/2 96/11/2
f 95/11/2 96/11/2 97/11/2
f 96/11/2 94/11/2 98/11/2
f 97/11/2 96/11/2 98/11/2
f 99/7/2 100/7/2 102/7/2
f 102/7/2 100/7/2 103/7/2
f 101/1/2 102/1/2 105/1/2
f 103/1/2 104/1/2 105/1/2
f 102/1/2 103/1/2 105/1/2
f 105/1/2 104/1/2 106/1/2
f 107/7/2 108/7/2 109/7/2
f 109/7/2 108/7/2 110/7/2
f 111/11/2 112/11/2 113/11/2
f 113/11/2 112/11/2 117/11/2
f 117/11/2 112/11/2 118/11/2
f 114/9/2 115/9/2 119/9/2
f 119/9/2 115/9/2 120/9/2
f 116/10/2 117/10/2 122/10/2
f 122/10/2 117/10/2 123/10/2
f 120/9/2 121/9/2 124/9/2
f 121/10/2 122/10/2 125/10/2
f 124/9/2 121/9/2 125/9/2
f 125/10/2 122/10/2 126/10/2
f 127/1/2 128/1/2 130/1/2
f 130/1/2 128/1/2 131/1/2
f 131/1/2 128/1/2 132/1/2
f 132/1/2 128/1/2 133/1/2
f 129/3/2 130/3/2 135/3/2
f 130/3/2 131/3/2 135/3/2
f 135/3/2 131/3/2 136/3/2
f 133/5/2 134/5/2 137/5/2
f 132/5/2 133/5/2 137/5/2
f 137/5/2 134/5/2 138/5/2
f 135/5/2 136/5/2 139/5/2
f 139/5/2 136/5/2 140/5/2
f 137/6/2 138/6/2 141/6/2
f 141/6/2 138/6/2 142/6/2
f 142/6/2 138/6/2 143/6/2
f 140/11/2 141/11/2 144/11/2
f 144/11/2 141/11/2 145/11/2
f 142/11/2 143/11/2 148/11/2
f 146/11/2 147/11/2 149/11/2
f 149/11/2 147/11/2 150/11/2
f 148/11/2 143/11/2 151/11/2
f 151/11/2 143/11/2 152/11/2
f 151/10/2 152/10/2 155/10/2
f 155/10/2 152/10/2 156/10/2
f 153/9/2 154/9/2 157/9/2
f 154/10/2 155/10/2 158/10/2
f 157/9/2 154/9/2 158/9/2
f 158/10/2 155/10/2 159/10/2
f 160/4/2 161/4/2 162/4/2
f 162/4/2 161/4/2 163/4/2
f 162/8/2 163/8/2 165/8/2
f 165/8/2 163/8/2 166/8/2
f 164/10/2 165/10/2 168/10/2
f 168/10/2 165/10/2 169/10/2
f 169/10/2 165/10/2 170/10/2
f 166/11/2 167/11/2 171/11/2
f 169/10/2 170/10/2 172/10/2
f 170/4/2 171/4/2 172/4/2
f 171/11/2 167/11/2 173/11/2
f 172/4/2 171/4/2 173/4/2
f 172/10/2 173/10/2 174/10/2
f 173/11/2 167/11/2 174/11/2
f 174/11/2 167/11/2 175/11/2
f 169/10/2 172/10/2 176/10/2
f 168/9/2 169/9/2 176/9/2
f 174/10/2 175/10/2 176/10/2
f 172/10/2 174/10/2 176/10/2
f 176/10/2 175/10/2 177/10/2
f 168/9/2 176/9/2 178/9/2
f 176/9/2 177/9/2 178/9/2
f 177/10/2 175/10/2 179/10/2
f 178/9/2 177/9/2 179/9/2
f 179/10/2 175/10/2 180/10/2
f 183/11/3 182/11/3 181/11/3
f 184/11/3 182/11/3 183/11/3
f 185/11/3 182/11/3 184/11/3
f 186/11/3 182/11/3 185/11/3
f 192/12/3 188/12/3 187/12/3
f 193/11/3 189/11/3 188/11/3
f 193/12/3 188/12/3 192/12/3
f 194/11/3 189/11/3 193/11/3
f 197/5/3 191/5/3 190/5/3
f 197/6/3 192/6/3 191/6/3
f 198/6/3 192/6/3 197/6/3
f 199/5/3 197/5/3 190/5/3
f 200/8/3 198/8/3 197/8/3
f 200/5/3 197/5/3 199/5/3
f 201/8/3 198/8/3 200/8/3
f 202/11/3 196/11/3 195/11/3
f 203/11/3 196/11/3 202/11/3
f 204/6/3 201/6/3 200/6/3
f 204/3/3 200/3/3 199/3/3
f 205/8/3 198/8/3 201/8/3
f 205/6/3 201/6/3 204/6/3
f 206/8/3 198/8/3 205/8/3
f 207/10/3 203/10/3 202/10/3
f 208/10/3 203/10/3 207/10/3
f 209/3/3 204/3/3 199/3/3
f 210/5/3 206/5/3 205/5/3
f 210/3/3 204/3/3 209/3/3
f 210/5/3 205/5/3 204/5/3
f 211/5/3 206/5/3 210/5/3
f 214/9/3 208/9/3 207/9/3
f 215/10/3 212/10/3 211/10/3
f 216/9/3 213/9/3 212/9/3
f 216/10/3 212/10/3 215/10/3
f 216/9/3 214/9/3 213/9/3
f 217/9/3 208/9/3 214/9/3
f 217/9/3 214/9/3 216/9/3
f 225/4/3 221/4/3 220/4/3
f 225/4/3 222/4/3 221/4/3
f 226/4/3 222/4/3 225/4/3
f 227/11/3 224/11/3 223/11/3
f 228/11/3 224/11/3 227/11/3
f 230/1/3 219/1/3 218/1/3
f 231/1/3 219/1/3 230/1/3
f 232/4/3 225/4/3 220/4/3
f 233/12/3 226/12/3 225/12/3
f 233/4/3 225/4/3 232/4/3
f 234/4/3 222/4/3 226/4/3
f 234/12/3 226/12/3 233/12/3
f 235/4/3 222/4/3 234/4/3
f 236/11/3 229/11/3 228/11/3
f 237/11/3 229/11/3 236/11/3
f 238/10/3 237/10/3 236/10/3
f 241/10/3 233/10/3 232/10/3
f 242/4/3 235/4/3 234/4/3
f 242/10/3 233/10/3 241/10/3
f 242/4/3 234/4/3 233/4/3
f 243/4/3 235/4/3 242/4/3
f 244/10/3 237/10/3 238/10/3
f 245/10/3 237/10/3 244/10/3
f 246/4/3 242/4/3 241/4/3
f 246/12/3 243/12/3 242/12/3
f 247/4/3 235/4/3 243/4/3
f 247/12/3 243/12/3 246/12/3
f 248/9/3 245/9/3 244/9/3
f 249/9/3 245/9/3 248/9/3
f 250/1/3 240/1/3 239/1/3
f 251/1/3 240/1/3 250/1/3
f 252/4/3 246/4/3 241/4/3
f 252/4/3 247/4/3 246/4/3
f 253/4/3 247/4/3 252/4/3
f 254/4/3 235/4/3 247/4/3
f 254/4/3 247/4/3 253/4/3
f 260/4/3 256/4/3 255/4/3
f 261/8/3 257/8/3 256/8/3
f 261/4/3 256/4/3 260/4/3
f 262/8/3 257/8/3 261/8/3
f 263/11/3 259/11/3 258/11/3
f 264/11/3 259/11/3 263/11/3
f 268/11/3 265/11/3 264/11/3
f 269/11/3 265/11/3 268/11/3
f 270/7/3 267/7/3 266/7/3
f 271/7/3 267/7/3 270/7/3
f 276/7/3 273/7/3 272/7/3
f 277/7/3 273/7/3 276/7/3
f 279/9/3 275/9/3 274/9/3
f 280/9/3 275/9/3 279/9/3
f 284/9/3 279/9/3 278/9/3
f 285/9/3 279/9/3 284/9/3
f 286/4/3 282/4/3 281/4/3
f 287/8/3 283/8/3 282/8/3
f 287/4/3 282/4/3 286/4/3
f 288/8/3 283/8/3 287/8/3
f 291/11/3 290/11/3 289/11/3
f 292/11/3 290/11/3 291/11/3
f 295/11/3 294/11/3 293/11/3
f 296/11/3 294/11/3 295/11/3
f 297/12/4 298/12/4 299/12/4
f 299/12/4 298/12/4 300/12/4
f 301/10/4 302/10/4 303/10/4
f 303/10/4 302/10/4 304/10/4
f 305/4/4 306/4/4 310/4/4
f 306/8/4 307/8/4 311/8/4
f 310/4/4 306/4/4 311/4/4
f 311/8/4 307/8/4 312/8/4
f 308/11/4 309/11/4 313/11/4
f 313/11/4 309/11/4 314/11/4
f 315/7/4 316/7/4 317/7/4
f 317/7/4 316/7/4 318/7/4
f 319/7/4 320/7/4 321/7/4
f 321/7/4 320/7/4 322/7/4
f 323/4/4 324/4/4 326/4/4
f 324/8/4 325/8/4 327/8/4
f 326/4/4 324/4/4 327/4/4
f 327/8/4 325/8/4 328/8/4
f 329/11/4 330/11/4 333/11/4
f 333/11/4 330/11/4 334/11/4
f 335/11/4 336/11/4 337/11/4
f 337/11/4 336/11/4 338/11/4
f 331/1/4 332/1/4 339/1/4
f 339/1/4 332/1/4 340/1/4
f 343/10/4 344/10/4 346/10/4
f 346/10/4 344/10/4 347/10/4
f 341/1/4 342/1/4 348/1/4
f 348/1/4 342/1/4 349/1/4
f 345/10/4 346/10/4 353/10/4
f 353/10/4 346/10/4 354/10/4
f 350/11/4 351/11/4 355/11/4
f 351/10/4 352/10/4 356/10/4
f 355/11/4 351/11/4 356/11/4
f 352/10/4 353/10/4 356/10/4
f 356/10/4 353/10/4 357/10/4
f 359/6/4 360/6/4 362/6/4
f 360/11/4 361/11/4 362/11/4
f 362/11/4 361/11/4 363/11/4
f 363/11/4 364/11/4 365/11/4
f 365/11/4 364/11/4 366/11/4
f 359/6/4 362/6/4 367/6/4
f 365/10/4 366/10/4 369/10/4
f 369/10/4 366/10/4 370/10/4
f 358/5/4 359/5/4 371/5/4
f 359/6/4 367/6/4 372/6/4
f 371/5/4 359/5/4 372/5/4
f 367/11/4 368/11/4 373/11/4
f 372/6/4 367/6/4 373/6/4
f 368/10/4 369/10/4 374/10/4
f 373/11/4 368/11/4 374/11/4
f 374/10/4 369/10/4 375/10/4
f 376/11/4 377/11/4 378/11/4
f 378/11/4 377/11/4 379/11/4
f 384/7/5 381/7/5 380/7/5
f 385/7/5 381/7/5 384/7/5
f 386/7/5 383/7/5 382/7/5
f 387/7/5 383/7/5 386/7/5
f 392/1/5 389/1/5 388/1/5
f 393/1/5 389/1/5 392/1/5
f 394/1/5 391/1/5 390/1/5
f 395/1/5 391/1/5 394/1/5
f 396/1/5 392/1/5 388/1/5
f 399/1/5 391/1/5 395/1/5
f 400/1/5 397/1/5 396/1/5
f 400/1/5 396/1/5 388/1/5
f 401/1/5 397/1/5 400/1/5
f 402/1/5 399/1/5 398/1/5
f 403/1/5 391/1/5 399/1/5
f 403/1/5 399/1/5 402/1/5
f 407/5/5 405/5/5 404/5/5
f 408/5/5 405/5/5 407/5/5
f 409/3/5 406/3/5 405/3/5
f 410/3/5 406/3/5 409/3/5
f 413/5/5 405/5/5 408/5/5
f 413/3/5 409/3/5 405/3/5
f 414/3/5 409/3/5 413/3/5
f 417/4/5 412/4/5 411/4/5
f 418/4/5 412/4/5 417/4/5
f 419/4/5 416/4/5 415/4/5
f 420/4/5 416/4/5 419/4/5
f 422/5/5 414/5/5 413/5/5
f 422/5/5 413/5/5 408/5/5
f 423/5/5 414/5/5 422/5/5
f 425/5/5 422/5/5 421/5/5
f 425/5/5 424/5/5 423/5/5
f 425/5/5 423/5/5 422/5/5
f 426/5/5 424/5/5 425/5/5
f 431/12/5 428/12/5 427/12/5
f 432/12/5 428/12/5 431/12/5
f 433/10/5 430/10/5 429/10/5
f 434/10/5 430/10/5 433/10/5
f 439/11/5 436/11/5 435/11/5
f 440/11/5 436/11/5 439/11/5
f 441/11/5 438/11/5 437/11/5
f 442/11/5 438/11/5 441/11/5
f 445/11/5 444/11/5 443/11/5
f 446/11/5 444/11/5 445/11/5
f 451/4/5 448/4/5 447/4/5
f 452/4/5 448/4/5 451/4/5
f 453/4/5 450/4/5 449/4/5
f 454/4/5 450/4/5 453/4/5
f 457/11/5 456/11/5 455/11/5
f 458/11/5 456/11/5 457/11/5
f 461/11/5 460/11/5 459/11/5
f 462/11/5 460/11/5 461/11/5
f 463/11/5 461/11/5 459/11/5
f 464/9/5 462/9/5 461/9/5
f 464/11/5 461/11/5 463/11/5
f 465/9/5 462/9/5 464/9/5
f 466/6/6 467/6/6 470/6/6
f 467/8/6 468/8/6 471/8/6
f 470/6/6 467/6/6 471/6/6
f 468/5/6 469/5/6 472/5/6
f 471/8/6 468/8/6 472/8/6
f 472/5/6 469/5/6 473/5/6
f 474/8/6 475/8/6 478/8/6
f 478/8/6 475/8/6 479/8/6
f 476/8/6 477/8/6 480/8/6
f 480/8/6 477/8/6 481/8/6
f 482/11/6 483/11/6 484/11/6
f 484/11/6 483/11/6 485/11/6
f 485/11/6 483/11/6 486/11/6
f 486/11/6 483/11/6 487/11/6
f 482/11/6 484/11/6 488/11/6
f 488/11/6 484/11/6 489/11/6
f 482/11/6 488/11/6 490/11/6
f 490/11/6 488/11/6 491/11/6
f 492/11/6 493/11/6 494/11/6
f 494/11/6 493/11/6 495/11/6
f 496/11/6 497/11/6 501/11/6
f 501/11/6 497/11/6 502/11/6
f 497/10/6 498/10/6 503/10/6
f 502/11/6 497/11/6 503/11/6
f 498/9/6 499/9/6 504/9/6
f 503/10/6 498/10/6 504/10/6
f 504/9/6 499/9/6 505/9/6
f 500/11/6 501/11/6 507/11/6
f 507/11/6 501/11/6 508/11/6
f 505/9/6 499/9/6 509/9/6
f 509/9/6 499/9/6 510/9/6
f 510/9/6 499/9/6 511/9/6
f 506/11/6 507/11/6 512/11/6
f 512/11/6 507/11/6 513/11/6
f 510/10/6 511/10/6 514/10/6
f 514/10/6 511/10/6 518/10/6
f 518/10/6 511/10/6 519/10/6
f 515/11/6 516/11/6 520/11/6
f 520/11/6 516/11/6 521/11/6
f 517/10/6 518/10/6 523/10/6
f 523/10/6 518/10/6 524/10/6
f 521/11/6 522/11/6 525/11/6
f 522/11/6 523/11/6 525/11/6
f 525/11/6 523/11/6 526/11/6
f 527/11/6 528/11/6 532/11/6
f 529/9/6 530/9/6 533/9/6
f 528/10/6 529/10/6 533/10/6
f 533/9/6 530/9/6 534/9/6
f 528/10/6 533/10/6 536/10/6
f 534/9/6 535/9/6 537/9/6
f 537/9/6 535/9/6 538/9/6
f 531/11/6 532/11/6 539/11/6
f 532/11/6 528/11/6 540/11/6
f 539/11/6 532/11/6 540/11/6
f 528/10/6 536/10/6 541/10/6
f 540/11/6 528/11/6 541/11/6
f 541/10/6 536/10/6 542/10/6
f 542/10/6 536/10/6 543/10/6
f 537/10/6 538/10/6 544/10/6
f 544/10/6 538/10/6 545/10/6
f 540/11/6 541/11/6 546/11/6
f 541/11/6 542/11/6 546/11/6
f 542/10/6 543/10/6 547/10/6
f 546/11/6 542/11/6 547/11/6
f 543/10/6 544/10/6 547/10/6
f 547/10/6 544/10/6 548/10/6
f 549/9/6 550/9/6 551/9/6
f 551/9/6 550/9/6 552/9/6
f 551/10/6 552/10/6 553/10/6
f 553/10/6 552/10/6 554/10/6
